<svg id="icon" xmlns="http://www.w3.org/2000/svg" viewBox="0 0 512 512"><title>arm muscle male</title><path d="M106.58,94.63a5.63,5.63,0,0,0,3.82-1.48l2.09-1.88A5.66,5.66,0,0,0,105,82.81l-2.2,2a5.66,5.66,0,0,0,3.82,9.84Z"/><path d="M253.75,299.79a5.62,5.62,0,0,0,2.29-.49,74,74,0,0,1,59.14-.86,69.39,69.39,0,0,1,10.59,7.43,5.66,5.66,0,0,0,7.29-8.67,79.13,79.13,0,0,0-12.86-8.93l-.24-.09a2.53,2.53,0,0,0-.23-.12,85.13,85.13,0,0,0-68.27.89,5.66,5.66,0,0,0,2.29,10.84Z"/><path d="M338.85,289a161.38,161.38,0,0,0,18.71-12.18c18.56-14.21,52.2-23,86-1.21a135.5,135.5,0,0,1,10.79,9.44,5.66,5.66,0,0,0,8,0,5.67,5.67,0,0,0,0-8,144.75,144.75,0,0,0-12.1-10.56c-.06-.05-.13-.07-.19-.12s-.12-.1-.18-.14c-38.8-25.16-77.7-14.86-99.21,1.6a150.28,150.28,0,0,1-17.39,11.32,5.67,5.67,0,0,0,2.79,10.6A5.59,5.59,0,0,0,338.85,289Z"/><path d="M259,487.75a231,231,0,0,0,206.33-126.1,5.66,5.66,0,0,0-10.08-5.17,221.51,221.51,0,0,1-41.65,56.77,125.38,125.38,0,0,0-41.83-44.35c-21.56-13.64-24.58-32.62-24.71-33.47A5.66,5.66,0,0,0,335.8,337c.14,1,3.63,24.91,29.87,41.51A114.46,114.46,0,0,1,405,421.23a218.8,218.8,0,0,1-37.95,27c-1.62-14.77-8.44-33.83-31.47-42.23a56.1,56.1,0,0,0-20.6-3.2c-21.3.53-93.58,1-129.83-14.6a5.51,5.51,0,0,0-1.87-.45c-.26,0-26.16-1.84-44.78-15.8a16.18,16.18,0,0,1-5.32-18.79c6-15.43,14-38.54,17.44-61.06,0-.1,0-.21,0-.3,0-.41,4.4-41.33,33.37-106.52,0,0,0-.08.05-.13l18.12-43.69a29.41,29.41,0,0,1,13.59-14.81l76-39.46a15.8,15.8,0,0,1,20.34,5.13l21.14,31.05A13.44,13.44,0,0,1,329,142.51l-32.93,19.54c-2.06,1.21-5,2.24-7.18.21l-10.31-9.47a5.66,5.66,0,0,0-7.66,8.34l10.3,9.46c5.54,5.11,13.24,5.56,20.62,1.2l11.6-6.88,1.61,2.21a19.21,19.21,0,0,0,26.09,4.72l8.82-5.79a24.42,24.42,0,0,0,10.61-16.15A5.66,5.66,0,1,0,349.44,148a13.07,13.07,0,0,1-5.68,8.63L335,162.38a7.93,7.93,0,0,1-10.74-1.94l-1-1.34,11.55-6.85A24.75,24.75,0,0,0,342.62,117L321.48,86a27.13,27.13,0,0,0-34.92-8.81l-76,39.46a40.8,40.8,0,0,0-18.83,20.52l-18.09,43.63c-29.13,65.57-33.89,106.43-34.24,109.77-3.5,22.58-12,46.34-16.78,58.51a27.55,27.55,0,0,0,9.08,32c19.31,14.48,44.45,17.47,49.83,18,38.61,16.14,112,15.69,133.72,15.16a44.31,44.31,0,0,1,16.44,2.51c19,6.94,23.95,23.48,24.42,37.31A220.5,220.5,0,0,1,259,476.43C137.41,476.43,38.53,377.55,38.53,256A219.31,219.31,0,0,1,76,133a5.66,5.66,0,0,0-9.39-6.33A230.55,230.55,0,0,0,27.21,256C27.21,383.79,131.17,487.75,259,487.75Z"/><path d="M153.48,62.4A220.7,220.7,0,0,1,259,35.57c97.86,0,185,65.63,211.93,159.6,5.05,17.62,2.62,36.3-6.68,51.24a47.85,47.85,0,0,1-6.41,8.33,5.66,5.66,0,0,0,8.08,7.94,60.34,60.34,0,0,0,7.95-10.29,75.16,75.16,0,0,0,7.95-60.34A233.37,233.37,0,0,0,399.65,71.82,229.67,229.67,0,0,0,259,24.25,232.05,232.05,0,0,0,148.05,52.46a5.66,5.66,0,0,0,5.43,9.94Z"/><path d="M261.48,173.93A5.66,5.66,0,0,0,258.36,163c-6.43,1.84-11.42.87-15.26-3a5.66,5.66,0,0,0-9.41,2.32c-.51,1.65-12.49,40.85-7.65,78.18l.9,6.92c3.27,24.93,5.06,38.66,2.38,50.16a23.33,23.33,0,0,1-10.68,14.91l-.11.06,2.84,4.9,3,4.83a34.7,34.7,0,0,0,16-22.13c3.15-13.5,1.26-28-2.18-54.2l-.9-6.9c-3.32-25.61,2.09-53,5.23-65.89C248,175.68,254.46,175.94,261.48,173.93Z"/></svg>