<svg xmlns="http://www.w3.org/2000/svg" viewBox="0 0 74.5 73.03"><defs><style>.cls-1{fill:#bbc7d4;}.cls-2{fill:#fff;}</style></defs><title>Recurso 196</title><g id="Capa_2" data-name="Capa 2"><g id="Capa_1-2" data-name="Capa 1"><rect class="cls-1" width="74.5" height="73.03" rx="16.46"/><path class="cls-2" d="M49.65,25.89H46.11a3.55,3.55,0,0,0-3.55,3.54v5.31H31.93V29.43a3.55,3.55,0,0,0-3.54-3.54H24.85a3.55,3.55,0,0,0-3.55,3.54V43.6a3.55,3.55,0,0,0,3.55,3.55h3.54a3.55,3.55,0,0,0,3.54-3.55V38.29H42.56V43.6a3.55,3.55,0,0,0,3.55,3.55h3.54a3.55,3.55,0,0,0,3.54-3.55V29.43A3.55,3.55,0,0,0,49.65,25.89ZM24.85,43.6V29.43h3.54V43.6Zm21.26,0V29.43h3.54V43.6Z"/><rect class="cls-2" x="54.97" y="32.97" width="3.54" height="7.09"/><rect class="cls-2" x="15.99" y="32.97" width="3.54" height="7.09"/></g></g></svg>