<?xml version="1.0" encoding="UTF-8" standalone="no"?>
<svg
   version="1.1"
   width="24.4583in"
   height="9.66667in"
   viewBox="0 0 1761 696"
   id="svg1"
   sodipodi:docname="pulse-logo.svg"
   inkscape:version="1.4.3 (0d15f75042, 2025-12-25)"
   xmlns:inkscape="http://www.inkscape.org/namespaces/inkscape"
   xmlns:sodipodi="http://sodipodi.sourceforge.net/DTD/sodipodi-0.dtd"
   xmlns="http://www.w3.org/2000/svg"
   xmlns:svg="http://www.w3.org/2000/svg">
  <defs
     id="defs1" />
  <sodipodi:namedview
     id="namedview1"
     pagecolor="#ffffff"
     bordercolor="#000000"
     borderopacity="0.25"
     inkscape:showpageshadow="2"
     inkscape:pageopacity="0.0"
     inkscape:pagecheckerboard="0"
     inkscape:deskcolor="#d1d1d1"
     inkscape:document-units="in"
     inkscape:zoom="0.35355339"
     inkscape:cx="1035.2043"
     inkscape:cy="455.37676"
     inkscape:window-width="1920"
     inkscape:window-height="1019"
     inkscape:window-x="0"
     inkscape:window-y="0"
     inkscape:window-maximized="1"
     inkscape:current-layer="svg1" />
  <path
     id="path1"
     style="fill:#b22222;fill-opacity:1"
     d="M 1553.5656 541.77554 C 1547.4718 541.76679 1541.1901 541.99966 1538.0001 541.99966 L 1472 541.99966 L 1245.0002 541.99966 L 1228.0007 543.00015 L 1186.0006 543.00015 L 1168.9996 544.00064 L 1128.0001 544.00064 L 1111.0005 544.99966 L 1075.0005 544.99966 L 1057.9995 546.00015 L 1021.0004 546.00015 L 1006.0004 547.00064 L 962.99984 547.00064 L 946.0003 547.99967 L 904.00025 547.99967 L 887.00071 549.00016 L 844.00016 549.00016 L 827.00063 550.00065 L 782.99959 550.00065 L 766.00006 550.99967 L 721 550.99967 L 704.00046 552.00016 L 659.0004 552.00016 L 641.9994 553.00065 L 597.99983 553.00065 L 581.0003 553.99968 L 537.99975 553.99968 L 522.99973 555.00017 L 479.00016 555.00017 L 462.00062 556.00065 L 420.99959 556.00065 L 404.00006 556.99968 L 312.99945 558.00017 L 295.99991 559.00066 L 258.00035 559.00066 L 240.99935 559.99968 L 208.99979 559.99968 L 192.99928 561.00017 L 172.99975 561.00017 L 187.99977 562.00066 L 207.00028 562.00066 L 219.99932 561.00017 L 237.00032 561.00017 L 249.99936 562.00066 L 267.99939 562.00066 L 282.99941 561.00017 L 310.99993 561.00017 L 325.99995 561.99041 L 339.00046 561.00017 L 447.99963 561.00017 L 420.00057 562.99969 L 404.00006 564.00018 L 377.00002 565.00067 L 363.00049 565.99969 L 315.00043 568.00067 L 297.99943 568.9997 L 271.99988 570.00019 L 258.99937 571.00068 L 240.99935 571.9997 L 229.99982 571.9997 L 213.00029 573.00019 L 198.00027 574.04023 L 187.99977 574.04023 L 175.99975 574.9997 L 126.00017 577.00068 L 112.00064 577.99971 L 129.00017 579.0002 L 153.00021 579.0002 L 166.00071 577.99971 L 208.99979 577.99971 L 225.99933 577.00068 L 265.99987 577.00068 L 282.99941 576.00019 L 324.00044 576.00019 L 340.99997 574.9997 L 381.00052 574.9997 L 398.00005 574.00068 L 438.99962 574.00068 L 453.99964 573.00019 L 498.00067 573.00019 L 515.00021 571.9997 L 558.99978 571.9997 L 575.99931 571.00068 L 618.99986 571.00068 L 635.99939 570.00019 L 678.99994 570.00019 L 695.99948 568.9997 L 739.00002 568.9997 L 755.99956 568.00067 L 797.99961 568.00067 L 815.00061 567.00018 L 857.99969 567.00018 L 872.99972 565.99969 L 916.00026 565.99969 L 932.9998 565.00067 L 973.00034 565.00067 L 989.99987 564.00018 L 1030.9994 564.00018 L 1045.9995 562.99969 L 1087.9995 562.99969 L 1105.0005 562.00066 L 1146.0001 562.00066 L 1162.9996 561.00017 L 1201.0006 561.00017 L 1224.0002 559.99968 L 1243.9997 559.00066 L 1258.9997 558.00017 L 1285.9998 556.99968 L 1302.9993 556.00065 L 1347.9994 553.99968 L 1363.9999 553.00065 L 1410.9995 550.99967 L 1427 550.00065 L 1454 549.00016 L 1469 547.99967 L 1517.0001 546.00015 L 1533.9996 544.99966 L 1568.0002 543.00015 C 1565.5652 542.03515 1559.6593 541.78429 1553.5656 541.77554 z ">
    <title
       id="title1">Selection</title>
  </path>
  <path
     id="path63"
     style="fill:#66cdaa;fill-opacity:1;stroke:#48d1cc"
     d="M 982.00035 490.99959 C 975.47035 493.94959 971.47963 498.78033 966.27963 503.49033 C 959.41963 509.71033 952.49933 514.32012 946.99933 522.00012 L 967.00033 523.00061 L 974.44028 521.97961 L 977.79038 513.00011 L 982.00035 490.99959 z ">
    <title
       id="title63">Selection</title>
  </path>
  <path
     id="path61"
     style="fill:#66cdaa;fill-opacity:1;stroke:#48d1cc"
     d="M 1286.1331 370.23478 L 1277.4202 403.99947 L 1254.3694 486.00007 C 1251.6594 496.56007 1245.4702 513.89964 1245.0002 523.99964 L 1260.0002 523.99964 L 1275.0003 523.00061 L 1407.9995 523.00061 L 1422.9995 523.99964 L 1440.0005 523.17053 L 1446.4399 521.97961 L 1449.3696 514.99962 L 1453.3701 499.9996 L 1464.4195 460.00053 L 1470.0005 439.99952 L 1392.0004 441.00001 L 1380.0004 440.00978 L 1365.9994 440.00978 L 1376.8495 400.00044 C 1377.8495 396.30044 1379.3103 387.08947 1382.4203 385.01947 C 1384.2903 383.77947 1387.7894 383.99993 1389.9994 383.99993 L 1449.9995 383.99993 C 1451.9995 383.99993 1455.6698 384.2597 1457.2798 383.0097 C 1459.2498 381.4697 1461.7296 370.0304 1462.5796 367.0004 L 1463.0425 365.2001 L 1298.4642 369.88322 L 1286.1331 370.23478 z ">
    <title
       id="title61">Selection</title>
  </path>
  <path
     id="path60"
     style="fill:#dc143c;fill-opacity:1"
     d="M 1286.1331 370.23478 L 1298.4642 369.88322 L 1463.0425 365.2001 L 1471.5694 331.99938 C 1473.8894 324.18938 1477.32 316.13979 1478 307.95979 L 1463 307.95979 L 1452.9995 307.00032 L 1425.0005 307.00032 L 1401.9995 307.99934 L 1410.6303 277.00028 C 1411.3203 274.22028 1412.7695 266.35036 1414.5795 264.60036 C 1416.5895 262.67036 1420.3995 263.00928 1422.9995 262.99928 L 1461.9995 262.99928 L 1479.0005 263.99977 L 1505.0001 263.99977 C 1508.0901 263.98977 1511.9604 264.44971 1514.0704 261.68971 C 1515.4404 259.87971 1518.32 246.23974 1519.13 242.99974 L 1530.5807 203.00067 C 1531.5207 199.60067 1535.53 185.95072 1534.36 183.33072 C 1533.09 180.46072 1525.8601 181.99064 1523.0001 182.00064 L 1497.0006 182.00064 L 1482.0005 181.00015 L 1323.9993 181.00015 C 1320.9893 181.01015 1317.2296 180.49021 1315.2996 183.31021 L 1310.2899 200.99969 L 1299.0003 244.00023 L 1321.9998 245.00072 L 1310.7205 283.99931 C 1309.7005 287.44931 1307.66 297.39927 1305.91 299.68927 C 1301.59 305.33927 1288.26 298.56055 1283.7 301.99055 C 1281.47 303.67055 1279.0494 314.77985 1278.1394 317.99985 C 1275.4194 327.58985 1267.3993 354.44991 1266.9993 362.99991 L 1287.9993 362.99991 L 1286.1331 370.23478 z ">
    <title
       id="title60">Selection</title>
  </path>
  <path
     id="path59"
     style="fill:#66cdaa;fill-opacity:1;stroke:#48d1cc"
     d="M 374.8467 396.16401 L 358.85644 396.61958 L 339.87937 397.16011 L 278.01747 398.92085 L 274.86951 409.99948 L 259.87975 466.00053 C 258.51975 471.18053 253.38952 491.65047 251.15952 494.90047 C 248.50952 498.74047 242.26935 500.79066 237.99935 502.58066 L 207.9993 515.20031 C 203.1393 517.17031 195.87928 519.51964 192.99928 523.99964 L 207.00028 523.00061 L 331.99996 523.00061 C 334.45996 523.00061 338.12013 523.4103 339.91013 521.4303 C 341.29013 519.9103 344.10984 509.6001 344.85984 507.0001 L 354.1206 474.00006 L 371.84962 407.99997 L 374.8467 396.16401 z ">
    <title
       id="title59">Selection</title>
  </path>
  <path
     id="path58"
     style="fill:#dc143c;fill-opacity:1"
     d="M 496.13885 392.7143 C 497.09559 391.85281 498.04833 390.97782 498.9997 390.0893 C 504.8997 384.5793 511.42976 378.22992 516.53976 371.99992 C 535.49976 348.86992 547.92059 314.7298 550.09059 284.9998 L 550.99 275.99979 C 551.1 271.12979 550.59969 269.50026 550.16969 265.00026 C 548.04969 243.14026 542.13981 223.11973 525.82981 207.28973 C 508.46981 190.42973 485.45062 184.10033 462.00062 181.93033 L 450.99963 181.00015 L 312.99945 181.00015 L 300.86027 224.00069 L 295.99991 244.00023 L 319.99994 244.00023 L 308.8803 284.9998 L 281.12001 388.00043 L 278.01747 398.92085 L 339.87937 397.16011 L 358.85644 396.61958 L 374.8467 396.16401 L 377.42043 385.99945 L 397.87993 313.00033 L 410.12018 268.99929 C 411.89018 262.26929 411.75057 255.36027 420.00057 255.02027 C 424.14057 254.85027 428.97961 255.35009 432.99961 256.34009 C 457.98961 262.51009 454.24037 295.53935 448.26037 313.99935 C 443.83037 327.65935 435.52057 342.46971 423.00057 350.06971 C 418.88057 352.57971 414.58007 354.20931 410.00007 355.64931 C 407.81007 356.33931 404.17011 357.02047 402.56011 358.58047 C 400.27011 360.81047 397.38057 374.16993 396.29057 377.99993 L 391.38334 395.6938 L 493.24725 392.79633 L 496.13885 392.7143 z ">
    <title
       id="title58">Selection</title>
  </path>
  <path
     id="path57"
     style="fill:#66cdaa;fill-opacity:1;stroke:#48d1cc"
     d="M 496.13885 392.7143 L 493.24725 392.79633 L 391.38334 395.6938 L 386.8599 412.00046 C 384.8999 418.93046 382.15954 425.75049 381.99954 433.00049 C 401.88954 433.00049 425.2006 431.40005 444.0006 424.56005 C 464.06304 417.27575 480.50251 406.79391 496.13885 392.7143 z ">
    <title
       id="title57">Selection</title>
  </path>
  <path
     id="path56"
     style="fill:#dc143c;fill-opacity:1"
     d="M 542.53345 391.39301 L 639.22938 388.64203 L 640.83925 388.59662 C 641.47918 386.38658 642.04913 384.47414 642.50038 382.99944 L 654.41983 338.99987 L 686.58052 221.00069 L 696.99997 182.00064 C 690.42997 180.13064 670.03041 181.0004 662.00041 181.0104 L 593.00031 181.0104 C 589.78031 180.9904 580.53006 179.6404 578.51006 181.0104 C 575.90006 182.8104 573.55036 193.60066 572.58036 197.00066 L 560.00027 244.00023 L 582.99981 244.00023 L 574.88017 271.99929 L 547.57984 373.99943 C 546.05871 379.33725 544.31695 385.21605 542.53345 391.39301 z ">
    <title
       id="title56">Selection</title>
  </path>
  <path
     id="path55"
     style="fill:#dc143c;fill-opacity:1"
     d="M 785.92196 384.46722 C 786.57542 381.96607 787.22722 379.47535 787.88046 376.99944 L 797.58067 343.99939 L 819.37025 262.99928 L 834.14029 209.9997 C 836.35029 202.2097 840.65016 188.55015 841.00016 181.00015 L 754.00004 181.00015 C 751.82004 181.00015 748.26972 180.77968 746.42972 182.01968 C 744.15972 183.55968 743.15044 188.41065 742.42044 191.00065 L 736.42043 214.00019 L 725.58057 253.99927 L 706.14939 322.99936 L 693.86959 367.0004 C 692.23399 373.54658 690.62015 380.37924 688.85542 387.22845 L 692.53365 387.12445 L 785.92196 384.46722 z ">
    <title
       id="title55">Selection</title>
  </path>
  <path
     id="path54"
     style="fill:#66cdaa;fill-opacity:1;stroke:#48d1cc"
     d="M 785.92196 384.46722 L 692.53365 387.12445 L 688.85542 387.22845 C 685.94831 398.51147 682.63282 409.83843 678.14008 419.99998 C 673.01008 431.58998 662.50941 446.25982 647.99941 444.79982 C 640.12941 444.00982 632.35042 437.1 632.06042 429 C 631.79005 421.54769 637.35236 400.63869 640.83925 388.59662 L 639.22938 388.64203 L 542.53345 391.39301 C 536.602 411.93596 530.2155 435.77935 530.00023 454.00052 C 529.87023 465.21052 531.28035 476.76056 536.12035 487.00056 C 547.91035 511.93056 573.27032 522.82021 599.00032 527.08021 C 605.15032 528.10021 610.74035 528.99062 617.00035 529.00062 L 638.00037 529.00062 C 644.87037 528.99062 649.3304 528.06001 656.0004 527.13001 C 684.1804 523.21001 708.9605 515.58931 731.0005 496.69931 C 764.04356 468.38476 775.32164 425.04059 785.92196 384.46722 z ">
    <title
       id="title54">Selection</title>
  </path>
  <path
     id="path53"
     style="fill:#dc143c;fill-opacity:1"
     d="M 914.48561 380.8095 L 916.58034 373.00041 L 953.87971 236.99974 L 968.99984 181.00015 L 880.00021 181.00015 C 877.92021 181.00015 874.26026 180.76968 872.56026 182.01968 C 870.17026 183.78968 867.73934 196.54066 866.86934 200.00066 L 850.42058 260.99977 L 830.42983 331.00035 L 816.1095 383.60882 L 836.17349 383.03753 L 914.48561 380.8095 z ">
    <title
       id="title53">Selection</title>
  </path>
  <path
     id="path52"
     style="fill:#66cdaa;fill-opacity:1;stroke:#48d1cc"
     d="M 914.48561 380.8095 L 836.17349 383.03753 L 816.1095 383.60882 L 804.56945 425.99999 L 792.42002 468.00005 L 778.00008 522.00012 C 783.71008 523.62012 790.0801 523.00061 796.0001 523.00061 L 827.00063 523.00061 L 928.00028 523.00061 C 930.09028 523.00061 933.06931 523.11002 934.99931 522.40002 C 939.12931 520.88002 948.13023 509.81961 951.42023 505.99961 L 986.99987 463.00053 C 991.76987 456.98053 1000.2299 447.24952 1001.9999 439.99952 L 967.99936 439.99952 L 950.99982 441.00001 L 928.9993 441.00001 C 917.5193 440.86001 911.48073 438.76001 899.00073 441.00001 L 905.57935 413.99997 L 914.48561 380.8095 z ">
    <title
       id="title52">Selection</title>
  </path>
  <path
     id="path51"
     style="fill:#66cdaa;fill-opacity:1;stroke:#48d1cc"
     d="M 1245.4543 371.39201 L 1106.0699 375.35734 L 1085.7554 375.93596 C 1090.78 379.76647 1095.7404 383.3057 1099.9995 386.2807 C 1113.9195 396.0107 1130.0603 400.94998 1138.6803 416.99998 C 1139.9903 419.44998 1141.2 422.2495 1141.67 424.9995 C 1143.88 437.6895 1133.4401 445.76938 1122.0001 447.83938 L 1111.9995 447.83938 C 1086.2895 447.69938 1079.11 430.51997 1068 410.99997 C 1061.69 413.97997 1051.4895 424.78966 1045.9995 429.90966 L 1009.0004 463.02983 C 1005.3804 466.45983 992.5997 476.41055 992.8197 481.00055 C 992.9497 483.61055 996.13037 487.04008 997.75037 489.00008 C 1003.1804 495.52008 1006.2994 498.41943 1012.9994 503.56943 C 1038.1794 522.92943 1071.9495 529.36062 1102.9995 529.00062 L 1113 528.0807 C 1158.16 524.4707 1202.9393 501.93955 1228.8093 463.99955 C 1247.2037 437.01338 1256.1687 402.18064 1245.4543 371.39201 z ">
    <title
       id="title51">Selection</title>
  </path>
  <path
     id="path50"
     style="fill:#dc143c;fill-opacity:1"
     d="M 1189.0006 176.00942 L 1180.0006 176.9103 C 1129.3706 180.4503 1079.92 207.65927 1056.75 253.99927 C 1049.81 267.87927 1045.1904 284.39982 1045.0004 299.99982 C 1044.7804 318.96982 1049.6506 338.87034 1061.6806 353.96034 C 1067.4252 361.17157 1076.6942 369.02817 1085.7554 375.93596 L 1106.0699 375.35734 L 1245.4543 371.39201 C 1243.2493 365.05563 1240.2121 358.88946 1236.2507 352.9994 C 1220.0407 328.8894 1189.3501 315.93039 1167.0001 298.58039 C 1158.9001 292.29039 1146.9594 281.57978 1150.5894 269.99978 C 1157.0294 249.43978 1189.1399 247.54929 1201.0299 265.99929 L 1208.2707 281.97929 C 1209.4907 284.27929 1211.1107 287.12031 1214.0407 287.27031 C 1218.6107 287.50031 1229.4102 276.43957 1233.0002 273.27957 L 1270.9998 239.2805 C 1274.1498 236.5405 1285.8405 226.94069 1287.1805 224.00069 C 1289.2405 219.44069 1279.6194 211.34954 1276.5794 208.08954 C 1263.4294 193.97954 1245.6202 184.42005 1227.0002 179.90005 C 1218.6802 177.88005 1210.4697 177.4903 1201.9997 176.9103 L 1189.0006 176.00942 z ">
    <title
       id="title50">Selection</title>
  </path>
  <path
     id="path46"
     style="fill:#b22222;fill-opacity:1;stroke:#000000;stroke-width:0.750001;stroke-opacity:1"
     d="m 1598.7062,177.95619 c -3.7867,-0.1464 -7.5561,0.0207 -11.2061,0.47315 -23.13,3.8 -45.7701,18.34085 -53.2501,41.57085 -7.62,23.63 -4.7695,54.75999 18.2505,68.87999 4.21,2.58 12.1296,5.41972 16.9996,6.44972 3.29,0.7 13.7995,1.66072 16.9995,1.24072 23.38,-3.08 40.0205,-11.81084 52.4005,-32.57085 2.12,-3.56 5.1595,-9.14051 6.4995,-13.00051 7.3,-21.09 3.5296,-48.26981 -14.9004,-62.46981 -8.9175,-6.87 -20.4329,-10.13404 -31.793,-10.57326 z m -1.3784,11.13576 c 28.4142,0.74557 45.6448,27.02703 37.1323,54.90828 -7.14,23.38001 -26.29,36.8893 -49.96,39.7193 -26.47,3.16 -41.1204,-18.96931 -42.8204,-42.71931 -1.22,-17.17 13.6504,-36.59021 27.8204,-44.66021 7.04,-4.02 14.0805,-5.84031 22.0005,-7.05031 1.9894,-0.18437 3.9329,-0.24745 5.8272,-0.19775 z m -16.8282,11.90773 c -9.16,0.06 -8.4794,1.43051 -11.3994,16.00051 l -10.5996,52.99959 h 13.9995 l 1.8003,-10.00051 1.749,-6.99903 c 1.92,-5.33 6.791,-10.99044 11.231,-3.94044 2.76,4.39 5.629,18.74948 8.729,20.91948 1.52,1.06 3.7302,0.99107 5.4902,0.85107 3.06,-0.24 6.08,-0.94106 9,-1.83106 l -4.9995,-15.99905 c -0.58,-2.04 -1.8504,-5.76005 -1.2304,-7.79005 0.9,-2.94 4.71,-3.97015 8.02,-7.39015 5.32,-5.51 10.6603,-19.42031 6.7603,-26.78031 -4.53,-8.53 -17.2899,-8.56038 -25.5499,-9.13038 z m 9.1787,12.99172 c 0.6394,-0.004 1.2598,0.0168 1.8223,0.0293 14.46,0.28 17.139,11.62934 7.979,17.04934 -2.45,1.45 -5.229,1.66958 -7.979,2.05958 -5.67,0.8 -5.141,0.85012 -11.001,0.87012 0.04,-3.98 1.3402,-15.54993 3.9302,-18.39993 1.2375,-1.3575 3.3304,-1.59528 5.2485,-1.6084 z" />
</svg>
